<?xml version="1.0" encoding="utf-8"?>
<!-- Generator: Adobe Illustrator 16.0.0, SVG Export Plug-In . SVG Version: 6.00 Build 0)  -->
<!DOCTYPE svg PUBLIC "-//W3C//DTD SVG 1.1//EN" "http://www.w3.org/Graphics/SVG/1.1/DTD/svg11.dtd">
<svg version="1.1" id="Layer_1" xmlns="http://www.w3.org/2000/svg" xmlns:xlink="http://www.w3.org/1999/xlink" x="0px" y="0px"
	 width="64px" height="64px" viewBox="0 0 64 64" enable-background="new 0 0 64 64" xml:space="preserve">
<g>
	<g>
		<path fill="#08446D" d="M31.9,13.4c3.1,0,5.6-3.2,5.6-7.2S35,0.8,31.9,0.8c-3.1,0-5.6,1.5-5.6,5.4S28.8,13.4,31.9,13.4z"/>
		<path fill="#00233F" d="M31.9,13.4c3.1,0,5.6-3.2,5.6-7.2S35,0.8,31.9,0.8"/>
		<path fill="#08446D" d="M34.6,14.8l-5.2,0c-3.9,0-7,3.1-7.1,7l-0.1,10.2c0,2.4,1.2,4.5,3,5.8c0,0.2-0.1,0.4-0.1,0.6l-0.1,22
			c0,1.6,1.3,3,2.9,3c1.6,0,2.9-1.3,3-2.9l0.1-14.9l1.6,0l-0.1,14.9c0,1.6,1.3,2.9,2.9,3c1.6,0,3-1.3,3-2.9l0.1-22
			c0-0.2,0-0.4-0.1-0.6c1.8-1.3,3-3.3,3-5.7l0.1-10.2C41.7,18,38.5,14.8,34.6,14.8z"/>
		<path fill="#00233F" d="M31,60.3l0.1-14.9l1.6,0l-0.1,14.9c0,1.6,1.3,3,2.9,3c1.6,0,3-1.3,3-2.9l0.1-22c0-0.2,0-0.4-0.1-0.6
			c1.8-1.3,3-3.3,3-5.7l0.1-10.2c0-3.9-3.1-7.1-7-7.1l-5.2,0"/>
		<path fill="#00233F" d="M25.3,38.3"/>
	</g>
	<g>
		<g>
			<path fill="#08446D" d="M52.3,15.8c2.7,0,4.9-2.8,4.9-6.3c0-3.5-2.2-4.7-4.9-4.7s-4.9,1.3-4.9,4.7C47.4,13,49.6,15.8,52.3,15.8z"
				/>
			<path fill="#00233F" d="M52.3,15.8c2.7,0,4.9-2.8,4.9-6.3c0-3.5-2.2-4.7-4.9-4.7"/>
			<path fill="#08446D" d="M54.6,17l-4.5,0c-3.4,0-6.1,2.7-6.1,6.1L44,31.9c0,2.1,1,3.9,2.6,5c0,0.2-0.1,0.3-0.1,0.5l-0.1,19.1
				c0,1.4,1.1,2.6,2.5,2.6c1.4,0,2.6-1.1,2.6-2.5l0.1-13l1.4,0l-0.1,13c0,1.4,1.1,2.6,2.5,2.6c1.4,0,2.6-1.1,2.6-2.5l0.1-19.1
				c0-0.2,0-0.4,0-0.5c1.6-1.1,2.6-2.9,2.6-5l0.1-8.9C60.7,19.8,58,17,54.6,17z"/>
			<path fill="#00233F" d="M51.5,56.6l0.1-13l1.4,0l-0.1,13c0,1.4,1.1,2.6,2.5,2.6c1.4,0,2.6-1.1,2.6-2.5l0.1-19.1
				c0-0.2,0-0.4,0-0.5c1.6-1.1,2.6-2.9,2.6-5l0.1-8.9c0-3.4-2.7-6.1-6.1-6.1l-4.5,0"/>
			<path fill="#00233F" d="M46.5,37.5"/>
		</g>
		<g>
			<path fill="#08446D" d="M11.6,15.8c2.7,0,4.9-2.8,4.9-6.3c0-3.5-2.2-4.7-4.9-4.7c-2.7,0-4.9,1.3-4.9,4.7
				C6.7,13,8.9,15.8,11.6,15.8z"/>
			<path fill="#00233F" d="M11.6,15.8c2.7,0,4.9-2.8,4.9-6.3c0-3.5-2.2-4.7-4.9-4.7"/>
			<path fill="#08446D" d="M14,17l-4.5,0c-3.4,0-6.1,2.7-6.1,6.1l-0.1,8.9c0,2.1,1,3.9,2.6,5c0,0.2-0.1,0.3-0.1,0.5L5.7,56.6
				c0,1.4,1.1,2.6,2.5,2.6c1.4,0,2.6-1.1,2.6-2.5l0.1-13l1.4,0l-0.1,13c0,1.4,1.1,2.6,2.5,2.6c1.4,0,2.6-1.1,2.6-2.5l0.1-19.1
				c0-0.2,0-0.4,0-0.5c1.6-1.1,2.6-2.9,2.6-5l0.1-8.9C20.1,19.8,17.3,17,14,17z"/>
			<path fill="#00233F" d="M10.8,56.6l0.1-13l1.4,0l-0.1,13c0,1.4,1.1,2.6,2.5,2.6c1.4,0,2.6-1.1,2.6-2.5l0.1-19.1
				c0-0.2,0-0.4,0-0.5c1.6-1.1,2.6-3,2.6-5l0-8.8c0-3.4-2.7-6.1-6.1-6.1l-4.5,0"/>
			<path fill="#00233F" d="M5.8,37.5"/>
		</g>
	</g>
</g>
</svg>
