<?xml version="1.0" encoding="utf-8"?>
<!-- Generator: Adobe Illustrator 16.0.0, SVG Export Plug-In . SVG Version: 6.00 Build 0)  -->
<!DOCTYPE svg PUBLIC "-//W3C//DTD SVG 1.1//EN" "http://www.w3.org/Graphics/SVG/1.1/DTD/svg11.dtd">
<svg version="1.1" id="Layer_1" xmlns="http://www.w3.org/2000/svg" xmlns:xlink="http://www.w3.org/1999/xlink" x="0px" y="0px"
	 width="64px" height="64px" viewBox="0 0 64 64" enable-background="new 0 0 64 64" xml:space="preserve">
<g>
	<g>
		<g>
			<g>
				<g>
					<path fill="#8EA5A4" d="M63,60.6c0,1.3-1.1,2.4-2.4,2.4H3.4C2.1,63,1,61.9,1,60.6V3.4C1,2.1,2.1,1,3.4,1h57.2
						C61.9,1,63,2.1,63,3.4V60.6z"/>
					<path fill="#FDFFFF" d="M3,11v47.7C3,60,3.9,61,5.1,61h53.8c1.2,0,2.1-1,2.1-2.3V11H3z"/>
					<path fill="#E8EFEF" d="M58.9,61c1.2,0,2.1-1.1,2.1-2.3V11H3"/>
					<rect x="3" y="11" fill="#DCE5E5" width="58" height="3"/>
					<g>
						<path fill="#FDFFFF" d="M50.4,6c0,1.2-1,2-2.2,2H5C3.8,8,4,7.2,4,6l0,0c0-1.2-0.2-2,1-2h43.2C49.4,4,50.4,4.8,50.4,6L50.4,6z"
							/>
						<path fill="#E6EFEF" d="M4,6.1L4,6.1C4,4.9,3.8,4,5,4h43.2c1.2,0,2.2,0.9,2.2,2.1l0,0"/>
					</g>
					<g>
						<g>
							<circle opacity="0.4" fill="#B1BCBC" cx="54.3" cy="6.2" r="1.1"/>
							<circle fill="#FFFFFF" cx="54.3" cy="5.7" r="1.1"/>
							<path fill="#E8EFEE" d="M53.5,4.9c0.4-0.4,1.2-0.4,1.6,0c0.4,0.4,0.4,1.2,0,1.6"/>
						</g>
						<g>
							<circle opacity="0.4" fill="#B1BCBC" cx="58.8" cy="6.2" r="1.1"/>
							<circle fill="#FFFFFF" cx="58.8" cy="5.7" r="1.1"/>
							<path fill="#E8EFEE" d="M58,4.9c0.4-0.4,1.2-0.4,1.6,0c0.4,0.4,0.4,1.2,0,1.6"/>
						</g>
					</g>
					<path fill="#8EA5A4" d="M13.6,5c0,0-0.1-0.1-0.1-0.1h-0.3c-0.1,0-0.1,0-0.1,0.1l-0.2,0.8c0,0,0,0,0,0c0,0,0,0,0,0l-0.3-0.8
						C12.5,5,12.5,5,12.4,5h-0.3c-0.1,0-0.1,0-0.1,0.1l-0.3,0.9c0,0,0,0,0,0c0,0,0,0,0,0l-0.2-0.8C11.5,5,11.5,5,11.4,5h-0.3
						c0,0-0.1,0-0.1,0c0,0-0.1,0-0.1,0h-0.3c-0.1,0-0.1,0-0.1,0.1l-0.2,0.8c0,0,0,0,0,0c0,0,0,0,0,0L10,5.1C10,5,9.9,5,9.8,5H9.6
						C9.5,5,9.5,5,9.4,5.1L9.2,5.9c0,0,0,0,0,0c0,0,0,0,0,0L8.9,5.1C8.9,5,8.9,5,8.8,5H8.5c0,0-0.1,0-0.1,0c0,0,0,0-0.1,0H8
						C8,5,7.9,5,7.9,5.1L7.7,5.9c0,0,0,0,0,0c0,0,0,0,0,0L7.4,5.1C7.4,5,7.3,5,7.2,5H7C6.9,5,6.9,5,6.9,5.1L6.6,5.9c0,0,0,0,0,0
						c0,0,0,0,0,0L6.4,5.1C6.3,5,6.3,5,6.2,5H5.9c0,0-0.1,0-0.1,0.1s0,0.1,0,0.1l0.5,1.7c0,0.1,0.1,0.1,0.1,0.1h0.3
						c0.1,0,0.1,0,0.1-0.1L7.1,6c0,0,0,0,0-0.1c0,0,0,0,0,0.1l0.3,0.8c0,0.1,0.1,0.1,0.1,0.1h0.3c0.1,0,0.1,0,0.1-0.1l0.5-1.5
						l0.4,1.5c0,0.1,0.1,0.1,0.1,0.1h0.3c0.1,0,0.1,0,0.1-0.1L9.7,6c0,0,0,0,0-0.1c0,0,0,0,0,0.1L10,6.8c0,0.1,0.1,0.1,0.1,0.1h0.3
						c0.1,0,0.1,0,0.1-0.1L11,5.3l0.4,1.5c0,0.1,0.1,0.1,0.1,0.1h0.3c0.1,0,0.1,0,0.1-0.1L12.3,6c0,0,0,0,0-0.1c0,0,0,0,0,0.1
						l0.3,0.8c0,0.1,0.1,0.1,0.1,0.1H13c0.1,0,0.1,0,0.1-0.1l0.5-1.7C13.7,5.1,13.7,5,13.6,5z"/>
				</g>
			</g>
		</g>
	</g>
	<g>
		<g>
			<g>
				<path fill="#DCE5E5" d="M36.9,41c-1.2,0-2.3-0.5-3.2-1.4l-2.2-2.2c-0.8-0.8-1.3-1.8-1.4-2.8c-0.1-1.1,0.2-2.2,1-2.9l8.4-8.4
					c0.6-0.6,1.5-1,2.5-1c1.2,0,2.3,0.5,3.2,1.4l2.2,2.2c0.9,0.9,1.4,2.1,1.4,3.2c0,1-0.4,1.8-1,2.5L39.3,40
					C38.7,40.6,37.8,41,36.9,41z M41.9,25.2c-0.1,0-0.3,0-0.3,0.1l-8.4,8.4C33,33.9,33,34.2,33,34.3c0,0.3,0.2,0.7,0.5,1l2.2,2.2
					c0.3,0.3,0.8,0.5,1.1,0.5c0.1,0,0.3,0,0.4-0.1l8.5-8.4c0.1-0.1,0.1-0.2,0.1-0.3c0-0.3-0.1-0.7-0.5-1.1l-2.2-2.2
					C42.7,25.4,42.2,25.2,41.9,25.2z"/>
			</g>
			<g>
				<g>
					<path fill="#DCE5E5" d="M22.1,55.8c-1.2,0-2.3-0.5-3.2-1.4l-2.2-2.2c-0.8-0.8-1.3-1.8-1.4-2.8c-0.1-1.1,0.2-2.2,1-2.9l8.4-8.4
						c0.6-0.6,1.5-1,2.5-1c1.2,0,2.3,0.5,3.2,1.4l2.2,2.2c1.7,1.7,1.9,4.3,0.4,5.7l-8.5,8.4C23.9,55.4,23,55.8,22.1,55.8z M27.1,40
						c-0.1,0-0.3,0-0.4,0.1l-8.4,8.4c-0.1,0.1-0.1,0.4-0.1,0.5c0,0.3,0.2,0.7,0.5,1l2.2,2.2c0.3,0.3,0.8,0.5,1.1,0.5
						c0.1,0,0.3,0,0.3-0.1l8.5-8.4c0.2-0.2,0.1-0.9-0.4-1.5l-2.2-2.2C27.9,40.2,27.5,40,27.1,40z"/>
				</g>
			</g>
		</g>
		<g>
			<path fill="#DCE5E5" d="M28.8,43.7c-0.4,0-0.8-0.1-1.1-0.4c-0.6-0.6-0.6-1.5,0-2.1l6.5-6.5c0.6-0.6,1.5-0.6,2.1,0s0.6,1.5,0,2.1
				l-6.5,6.5C29.5,43.6,29.2,43.7,28.8,43.7z"/>
		</g>
	</g>
	<g>
		<g>
			<g>
				<path fill="#4B90E2" d="M36.9,38c-1.2,0-2.3-0.5-3.2-1.4l-2.2-2.2c-0.8-0.8-1.3-1.8-1.4-2.8c-0.1-1.1,0.2-2.2,1-2.9l8.4-8.4
					c0.6-0.6,1.5-1,2.5-1c1.2,0,2.3,0.5,3.2,1.4l2.2,2.2c0.9,0.9,1.4,2.1,1.4,3.2c0,1-0.4,1.8-1,2.5L39.3,37
					C38.7,37.6,37.8,38,36.9,38z M41.9,22.2c-0.1,0-0.3,0-0.3,0.1l-8.4,8.4C33,30.9,33,31.2,33,31.3c0,0.3,0.2,0.7,0.5,1l2.2,2.2
					c0.3,0.3,0.8,0.5,1.1,0.5c0.1,0,0.3,0,0.4-0.1l8.5-8.4c0.1-0.1,0.1-0.2,0.1-0.3c0-0.3-0.1-0.7-0.5-1.1l-2.2-2.2
					C42.7,22.4,42.2,22.2,41.9,22.2z"/>
			</g>
			<g>
				<g>
					<path fill="#4B90E2" d="M22.1,52.8c-1.2,0-2.3-0.5-3.2-1.4l-2.2-2.2c-0.8-0.8-1.3-1.8-1.4-2.8c-0.1-1.1,0.2-2.2,1-2.9l8.4-8.4
						c0.6-0.6,1.5-1,2.5-1c1.2,0,2.3,0.5,3.2,1.4l2.2,2.2c1.7,1.7,1.9,4.3,0.4,5.7l-8.5,8.4C23.9,52.4,23,52.8,22.1,52.8z M27.1,37
						c-0.1,0-0.3,0-0.4,0.1l-8.4,8.4c-0.1,0.1-0.1,0.4-0.1,0.5c0,0.3,0.2,0.7,0.5,1l2.2,2.2c0.3,0.3,0.8,0.5,1.1,0.5
						c0.1,0,0.3,0,0.3-0.1l8.5-8.4c0.2-0.2,0.1-0.9-0.4-1.5l-2.2-2.2C27.9,37.2,27.5,37,27.1,37z"/>
				</g>
			</g>
		</g>
		<g>
			<path fill="#5DBA02" d="M28.8,40.7c-0.4,0-0.8-0.1-1.1-0.4c-0.6-0.6-0.6-1.5,0-2.1l6.5-6.5c0.6-0.6,1.5-0.6,2.1,0s0.6,1.5,0,2.1
				l-6.5,6.5C29.5,40.6,29.2,40.7,28.8,40.7z"/>
		</g>
	</g>
</g>
</svg>
