<?xml version="1.0" encoding="utf-8"?>
<!-- Generator: Adobe Illustrator 16.0.0, SVG Export Plug-In . SVG Version: 6.00 Build 0)  -->
<!DOCTYPE svg PUBLIC "-//W3C//DTD SVG 1.1//EN" "http://www.w3.org/Graphics/SVG/1.1/DTD/svg11.dtd">
<svg version="1.1" id="Layer_1" xmlns="http://www.w3.org/2000/svg" xmlns:xlink="http://www.w3.org/1999/xlink" x="0px" y="0px"
	 width="65px" height="65px" viewBox="0 0 65 65" enable-background="new 0 0 65 65" xml:space="preserve">
<g>
	<path fill="#085BBF" d="M63.791,30.789L39.572,6.57c-0.69-0.691-1.731-0.898-2.639-0.525c-0.903,0.375-1.494,1.258-1.494,2.236
		v12.445H2.762c-1.248,0-2.262,1.013-2.262,2.261v19.026c0,1.249,1.014,2.261,2.262,2.261h32.678v12.444
		c0,0.979,0.591,1.862,1.494,2.236c0.3,0.124,0.615,0.185,0.926,0.185c0.631,0,1.249-0.245,1.713-0.709l24.219-24.22
		c0.454-0.453,0.709-1.068,0.709-1.71C64.5,31.857,64.245,31.242,63.791,30.789z"/>
	<path fill="#1E81E2" d="M35.439,44.932l21.248-21.248L39.572,6.57c-0.69-0.691-1.731-0.898-2.639-0.525
		c-0.903,0.375-1.494,1.258-1.494,2.236v12.445H2.762c-1.248,0-2.262,1.013-2.262,2.261v19.026c0,1.249,1.014,2.261,2.262,2.261
		h32.678V44.932z"/>
	<path fill="#07D0E5" d="M2.762,44.274"/>
	<path fill="#319EF7" d="M35.439,20.726H2.762c-1.248,0-2.262,1.013-2.262,2.261"/>
	<path fill="#07D0E5" d="M36.934,6.044"/>
</g>
</svg>
