<?xml version="1.0" encoding="utf-8"?>
<!-- Generator: Adobe Illustrator 16.0.0, SVG Export Plug-In . SVG Version: 6.00 Build 0)  -->
<!DOCTYPE svg PUBLIC "-//W3C//DTD SVG 1.1//EN" "http://www.w3.org/Graphics/SVG/1.1/DTD/svg11.dtd">
<svg version="1.1" id="Layer_1" xmlns="http://www.w3.org/2000/svg" xmlns:xlink="http://www.w3.org/1999/xlink" x="0px" y="0px"
	 width="512px" height="512px" viewBox="0 0 512 512" enable-background="new 0 0 512 512" xml:space="preserve">
<g>
	<g>
		<g>
			<g>
				<g>
					<g>
						<g>
							<path fill="#25B7D3" d="M504.1,256C504.1,119,393,7.9,256,7.9C119,7.9,7.9,119,7.9,256C7.9,393,119,504.1,256,504.1
								C393,504.1,504.1,393,504.1,256z"/>
						</g>
					</g>
				</g>
			</g>
		</g>
	</g>
</g>
<g>
	<g>
		<g>
			<path fill="#E8DEB3" d="M450.3,255.1c0,8.2-5.8,14.8-13,14.8h-67.1c-7.1,0-13-6.6-13-14.8l0,0c0-8.2,5.8-14.8,13-14.8h67.1
				C444.5,240.2,450.3,246.9,450.3,255.1L450.3,255.1z"/>
			<g>
				<path fill="#ABD9DF" d="M421.4,252.2c0-10.8-61.5-77.3-83.5-77.3H121.2c-22.1,0-33.3,12.6-33.3,34.7v86.6
					c0,22.1,11.2,33.3,33.3,33.3h216.7C360,329.4,421.4,262.9,421.4,252.2z M344.6,255c0-8.6,7-15.5,15.5-15.5
					c8.6,0,15.5,7,15.5,15.5c0,8.6-7,15.5-15.5,15.5C351.5,270.6,344.6,263.6,344.6,255z"/>
			</g>
			<g>
				<g>
					<path fill="#226E72" d="M277.3,221.4c0,6.6-7.5,11.3-7.9,10.7c-5.6-6.4-15.1-11.3-24.8-11.3c-9.8,0-15.8,4.4-15.8,11
						c0,7.6,8.1,9.7,19.3,12.2c13.5,2.9,31.2,8.4,31.2,27.5c0,14.8-10.3,25-27.4,27.7v5.7c0,6.7-2.6,10-8.5,10h-0.7
						c-6.1,0-8.3-3.1-8.3-10v-5.4c-17.7-1.9-27.8-10-27.8-18.2c0-6.3,7-10.8,7.6-10.3c5.6,6.7,16.4,12.3,27.8,12.3
						c10.4,0,16.4-4.4,16.4-11c0-8.1-9.1-10.3-19.8-12.7c-12.9-2.8-29.9-7.9-29.9-27.2c0-14.1,10-24.2,25.8-27.1v-5.4
						c0-6.7,2.5-10,8.4-10h0.9c6,0,8.3,3.1,8.3,10v5C268.4,206.6,277.3,213.9,277.3,221.4z"/>
				</g>
			</g>
			<g>
				<path fill="none" d="M359.4,266.6c8.4,0,15.2-6.8,15.2-15.2c0-2.4-0.6-4.6-1.6-6.7c-8.2-0.3-17.1-0.6-26.7-0.8
					c-1.3,2.2-2,4.7-2,7.4C344.2,259.8,351,266.6,359.4,266.6z"/>
			</g>
			<path fill="#F7F5ED" d="M450.3,258.1c0,7.2-5.8,13-13,13h-67.4c-7.2,0-13-5.8-13-13l0,0c0-7.2,5.8-13,13-13h67.4
				C444.5,245.1,450.3,250.9,450.3,258.1L450.3,258.1z"/>
		</g>
	</g>
</g>
</svg>
