<?xml version="1.0" encoding="utf-8"?>
<!-- Generator: Adobe Illustrator 16.0.0, SVG Export Plug-In . SVG Version: 6.00 Build 0)  -->
<!DOCTYPE svg PUBLIC "-//W3C//DTD SVG 1.1//EN" "http://www.w3.org/Graphics/SVG/1.1/DTD/svg11.dtd">
<svg version="1.1" id="Layer_1" xmlns="http://www.w3.org/2000/svg" xmlns:xlink="http://www.w3.org/1999/xlink" x="0px" y="0px"
	 width="512px" height="512px" viewBox="0 0 512 512" enable-background="new 0 0 512 512" xml:space="preserve">
<g>
	<g>
		<g>
			<g>
				<g>
					<g>
						<g>
							<g>
								<g>
									<path fill="#0CA552" d="M504.1,256C504.1,119,393,7.9,256,7.9C119,7.9,7.9,119,7.9,256C7.9,393,119,504.1,256,504.1
										C393,504.1,504.1,393,504.1,256z"/>
								</g>
							</g>
						</g>
					</g>
				</g>
			</g>
		</g>
	</g>
	<g>
		<g>
			<path fill="#EFBA74" d="M121.1,342c-18,18-16.6,56.7-16.6,56.7s39,1.2,56.7-16.6c12.1-12.1,12.9-30.9,1.8-42
				C152,329.1,133.2,329.9,121.1,342z"/>
			<path fill="#D16A63" d="M134.3,341.3c-12.4,12.4-10.5,38.1-10.5,38.1s25.9,1.7,38.1-10.5c8.3-8.3,8.9-21.3,1.3-28.9
				C155.6,332.4,142.6,333,134.3,341.3z"/>
			<path fill="#D8D8D8" d="M275.6,285.5l9.3,44.8c0,0,3.5,9.5-8.4,16.4c-11.9,6.8-70.1,44.8-70.1,44.8l14.1-64.8l50.9-44.5
				L275.6,285.5z"/>
			<polygon fill="#C4C4C4" points="269.8,296 215,352 218.9,333.9 255.5,289.1 			"/>
			<path fill="#D8D8D8" d="M218,227.9l-44.8-9.3c0,0-9.5-3.5-16.4,8.4c-6.8,11.9-44.8,70.1-44.8,70.1l64.8-14.1l44.5-50.9L218,227.9
				z"/>
			<polygon fill="#A3A3A3" points="152.2,331.7 172.1,351.7 182.3,352.4 151.4,321.6 			"/>
			<path fill="#6D6D6D" d="M150.5,314c-2,2-1.7,5.6,0.8,8.1l30.5,30.5c2.5,2.5,6.1,2.8,8.1,0.8l13.2-13.2c2-2,1.7-5.6-0.8-8.1
				l-30.5-30.5c-2.5-2.5-6.1-2.8-8.1-0.8L150.5,314z"/>
			<polygon fill="#4F4F4F" points="158.6,305.9 198.9,344.4 193.9,349.5 157.1,307.4 			"/>
			
				<rect x="174.9" y="340.3" transform="matrix(0.7071 -0.7071 0.7071 0.7071 -187.9486 230.1601)" fill="#545456" width="17.8" height="3.3"/>
			
				<rect x="163.9" y="329.3" transform="matrix(0.7072 -0.707 0.707 0.7072 -183.3501 219.043)" fill="#545456" width="17.8" height="3.3"/>
			
				<rect x="152.8" y="318.2" transform="matrix(0.7072 -0.707 0.707 0.7072 -178.7814 208.0225)" fill="#545456" width="17.8" height="3.3"/>
			<path fill="#F4F4F4" d="M354.7,143.6c-0.3,0.3,1.9,2.8,2.2,3.1l0,0c0.3,0.3,2.8,2.4,3.1,2.2l41.7-45.8c0.3-0.3,0.2-0.7-0.1-1l0,0
				c-0.3-0.3-0.8-0.3-1-0.1L354.7,143.6z"/>
			<path fill="#E5E5E5" d="M356.9,146.7L356.9,146.7c0.3,0.3,2.8,2.4,3.1,2.2l41.7-45.8c0.3-0.3,0.2-0.7-0.1-1l0,0
				C401.3,101.7,356.6,146.4,356.9,146.7z"/>
			<path fill="#E07D75" d="M270.1,148.5c59-59,119.5-34.5,119.5-34.5s26.1,58.9-34.5,119.5c-0.7,0.7-2.3,2.1-2.3,2.1l-85-84.7
				C267.9,150.9,269.3,149.3,270.1,148.5z"/>
			<path fill="#CE6F6A" d="M369.2,162.9c13.9-13.9,19.8-30.9,20-49.1c0.3,0.1,0.4,0.2,0.4,0.2s26.1,58.9-34.5,119.5
				c-0.7,0.7-2.3,2.1-2.3,2.1l-54.7-54.5C322.6,188.2,350,182.2,369.2,162.9z"/>
			<path fill="#F4F4F4" d="M160.7,294c-2.2,2.8-2.3,6,0,8.3l40.6,40.6c2.3,2.3,5.4,2.3,8.3,0l143.4-107.6c0,0-9.2-17.9-38-46.7
				c-25.3-25.3-46.7-38-46.7-38L160.7,294z"/>
			<path fill="#E0E0E0" d="M315,188.6c28.8,28.8,38,46.7,38,46.7L209.6,342.9c-2.9,2.3-6,2.3-8.3,0L181,322.6L315,188.6
				C315,188.6,315,188.6,315,188.6z"/>
			<path fill="#A3A3A3" d="M261.1,210.9c9.3-9.3,24.4-9.3,33.7,0c9.3,9.3,9.3,24.4,0,33.7c-9.3,9.3-24.4,9.3-33.7,0
				S251.8,220.2,261.1,210.9z M263.9,213.7c-7.8,7.8-7.8,20.5,0,28.3c7.8,7.8,20.5,7.8,28.3,0c7.8-7.8,7.8-20.5,0-28.3
				C284.3,205.9,271.7,205.9,263.9,213.7z"/>
			<path fill="#F4F4F4" d="M262,210.7c-8.6,8.6-8.6,22.4,0,31c8.6,8.6,22.4,8.6,31,0c8.6-8.6,8.6-22.4,0-31
				C284.4,202.1,270.5,202.1,262,210.7z"/>
			<path fill="#EDEDED" d="M292.9,210.7c2.9,2.9,4.8,6.4,5.7,10c-0.9,1.7-2.1,3.2-3.5,4.7c-8.6,8.6-22.4,8.6-31,0
				c-2.9-2.9-4.8-6.4-5.7-10c0.9-1.7,2.1-3.2,3.5-4.7C270.5,202.1,284.4,202.1,292.9,210.7z"/>
			<path fill="#B5B5B5" d="M260.6,209.3c9.3-9.3,24.4-9.3,33.7,0c9.3,9.3,9.3,24.4,0,33.7c-9.3,9.3-24.4,9.3-33.7,0
				C251.3,233.7,251.3,218.6,260.6,209.3z M263.3,212c-7.8,7.8-7.8,20.5,0,28.3c7.8,7.8,20.5,7.8,28.3,0c7.8-7.8,7.8-20.5,0-28.3
				C283.8,204.2,271.1,204.2,263.3,212z"/>
			<g>
				<path fill="#A3A3A3" d="M228.1,255.1c6.2-6.2,16.3-6.2,22.6,0c6.2,6.2,6.2,16.3,0,22.6c-6.2,6.2-16.3,6.2-22.6,0
					C221.9,271.5,221.9,261.3,228.1,255.1z M230.8,257.8c-4.7,4.7-4.7,12.4,0,17.1c4.7,4.7,12.4,4.7,17.1,0c4.7-4.7,4.7-12.4,0-17.1
					C243.2,253.1,235.6,253.1,230.8,257.8z"/>
				<path fill="#F4F4F4" d="M228.9,254.9c-5.5,5.5-5.5,14.4,0,19.8c5.5,5.5,14.4,5.5,19.8,0c5.5-5.5,5.5-14.4,0-19.8
					C243.3,249.4,234.4,249.4,228.9,254.9z"/>
				<path fill="#EDEDED" d="M248.8,254.9c1,1,1.8,2.1,2.4,3.3c-0.1,0.1-0.2,0.2-0.2,0.3c-5.5,5.5-14.4,5.5-19.8,0
					c-1-1-1.8-2.1-2.4-3.3c0.1-0.1,0.2-0.2,0.2-0.3C234.4,249.4,243.3,249.4,248.8,254.9z"/>
				<path fill="#B5B5B5" d="M227.6,253.5c6.2-6.2,16.3-6.2,22.6,0c6.2,6.2,6.2,16.3,0,22.6c-6.2,6.2-16.3,6.2-22.6,0
					C221.4,269.8,221.4,259.7,227.6,253.5z M230.3,256.2c-4.7,4.7-4.7,12.4,0,17.1c4.7,4.7,12.4,4.7,17.1,0c4.7-4.7,4.7-12.4,0-17.1
					C242.7,251.5,235,251.5,230.3,256.2z"/>
			</g>
			<g>
				<path fill="#A3A3A3" d="M202.6,287.1c4.4-4.4,11.5-4.4,15.8,0c4.4,4.4,4.4,11.5,0,15.8c-4.4,4.4-11.5,4.4-15.8,0
					C198.2,298.5,198.2,291.4,202.6,287.1z M204.5,289c-3.3,3.3-3.3,8.7,0,12c3.3,3.3,8.7,3.3,12,0c3.3-3.3,3.3-8.7,0-12
					C213.2,285.7,207.8,285.7,204.5,289z"/>
				<circle fill="#F4F4F4" cx="210.1" cy="293.8" r="9.8"/>
				<path fill="#EDEDED" d="M217.1,286.9c0.7,0.7,1.3,1.5,1.7,2.3c-0.1,0.1-0.1,0.1-0.2,0.2c-3.8,3.8-10.1,3.8-13.9,0
					c-0.7-0.7-1.3-1.5-1.7-2.3c0.1-0.1,0.1-0.1,0.2-0.2C207,283,213.2,283,217.1,286.9z"/>
				<path fill="#B5B5B5" d="M202.2,285.9c4.4-4.4,11.5-4.4,15.8,0c4.4,4.4,4.4,11.5,0,15.8c-4.4,4.4-11.5,4.4-15.8,0
					C197.8,297.4,197.8,290.3,202.2,285.9z M204.1,287.8c-3.3,3.3-3.3,8.7,0,12c3.3,3.3,8.7,3.3,12,0c3.3-3.3,3.3-8.7,0-12
					C212.8,284.5,207.4,284.5,204.1,287.8z"/>
			</g>
			<g>
				<path fill="#A3A3A3" d="M349.3,238.2c-1.8-3.6-5.1-8.3-7.3-11.6c-7.2-10.6-15.5-20.4-24.2-29.8c-14.4-15.6-31-31.7-49.3-42.9
					c-3.1-1.9,0.3-6,3.3-4.1c18.7,11.4,35.3,27.1,50.1,43c8.8,9.4,17,19.3,24.4,29.9c2.5,3.7,7.4,12.1,7.4,12.1L349.3,238.2
					L349.3,238.2L349.3,238.2z"/>
			</g>
			<g>
				<path fill="#F7B669" d="M350.6,236.7c-1.9-3.7-4.4-7.2-6.8-10.6c-7.7-10.8-16.5-20.8-25.7-30.4c-15.2-15.9-32.2-31.4-51.2-42.8
					c-3.2-1.9-0.3-6.9,2.8-5c19.4,11.6,36.8,27.5,52.5,43.7c9.3,9.6,18,19.7,25.8,30.5c2.7,3.7,5.5,7.6,7.6,11.7
					C357.3,237.2,352.3,240.1,350.6,236.7L350.6,236.7z"/>
			</g>
			<path fill="#FFC97B" d="M269.7,148c16.3,9.7,31.1,22.4,44.7,35.8c-3.2-0.2-6.3-0.6-9.4-1.2c-11.7-11.1-24.4-21.5-38.1-29.7
				C263.7,151.2,266.5,146.1,269.7,148z"/>
			
				<ellipse transform="matrix(-0.7072 -0.707 0.707 -0.7072 585.8618 469.4999)" fill="#F7B669" cx="390.1" cy="113.4" rx="5.3" ry="4.9"/>
			<path fill="#FFC97B" d="M393.6,110c0.3,0.3,0.5,0.6,0.7,0.9c-0.2,0.3-0.4,0.6-0.6,0.8c-1.9,1.9-5.1,1.8-7.2-0.3
				c-0.3-0.3-0.5-0.6-0.7-0.9c0.2-0.3,0.4-0.6,0.6-0.8C388.3,107.8,391.5,107.9,393.6,110z"/>
			<path fill="#626263" d="M150.4,330.4c-0.6,0.6-0.6,1.6,0,2.1l21.1,21.1c0.6,0.6,1.6,0.6,2.2,0l0,0c0.6-0.6,0.6-1.6,0-2.2
				l-21.1-21.1C152,329.8,151,329.8,150.4,330.4L150.4,330.4z"/>
			<path fill="#F7B669" d="M158.3,302.9c-0.9,0.9-0.9,2.3,0,3.1l39.2,39.2c0.9,0.9,2.3,0.9,3.1,0l0,0c0.9-0.9,0.9-2.3,0-3.1
				l-39.2-39.2C160.6,302,159.2,302,158.3,302.9L158.3,302.9z"/>
		</g>
	</g>
</g>
</svg>
