<?xml version="1.0" encoding="utf-8"?>
<!-- Generator: Adobe Illustrator 16.0.0, SVG Export Plug-In . SVG Version: 6.00 Build 0)  -->
<!DOCTYPE svg PUBLIC "-//W3C//DTD SVG 1.1//EN" "http://www.w3.org/Graphics/SVG/1.1/DTD/svg11.dtd">
<svg version="1.1" id="Layer_1" xmlns="http://www.w3.org/2000/svg" xmlns:xlink="http://www.w3.org/1999/xlink" x="0px" y="0px"
	 width="512px" height="512px" viewBox="0 0 512 512" enable-background="new 0 0 512 512" xml:space="preserve">
<g>
	<g>
		<g>
			<g>
				<g>
					<path fill="#4ABC96" d="M7.9,256C7.9,119,119,7.9,256,7.9C393,7.9,504.1,119,504.1,256c0,137-111.1,248.1-248.1,248.1
						C119,504.1,7.9,393,7.9,256z"/>
				</g>
			</g>
		</g>
	</g>
	<g>
		<path fill="#357180" d="M420.9,351.4c0,13.2-6.7,18.6-20,18.6H245.8V136.4h155.1c13.2,0,20,6.1,20,19.3V351.4z"/>
		<path fill="#FFFFFF" d="M264.1,361h130.2c12.2,0,15.2-1.4,15.2-13.6V161c0-12.2-2.9-15.6-15.2-15.6H264.1V361z"/>
		<path fill="#357180" d="M95.3,155.2c0-13.2,6.7-18.6,20-18.6h142.5v233.7H115.3c-13.2,0-20-6.1-20-19.3V155.2z"/>
		<g>
			<defs>
				<path id="SVGID_1_" d="M396.1,240.9c0,3.8-3,6.8-6.8,6.8h-49.1c-3.8,0-6.8-3.1-6.8-6.8V180c0-3.8,3.1-6.8,6.8-6.8h49.1
					c3.8,0,6.8,3,6.8,6.8V240.9z"/>
			</defs>
			<clipPath id="SVGID_2_">
				<use xlink:href="#SVGID_1_"  overflow="visible"/>
			</clipPath>
			<path clip-path="url(#SVGID_2_)" fill="#90B9C0" d="M396.1,240.9c0,3.8-3,6.8-6.8,6.8h-49.1c-3.8,0-6.8-3.1-6.8-6.8V180
				c0-3.8,3.1-6.8,6.8-6.8h49.1c3.8,0,6.8,3,6.8,6.8V240.9z"/>
			<path clip-path="url(#SVGID_2_)" fill="#FFFFFF" d="M369.8,226v-4c5.9-2.6,9.8-9.2,10.6-17.5c1.1-0.5,1.9-2.1,1.9-4
				c0-2.3-1-4.1-2.3-4.2c-1.8-8-7.6-12.1-15.4-12.1c-7.8,0-13.7,4.1-15.5,12.1c-1.3,0.1-2.3,1.9-2.3,4.2c0,2,0.8,3.6,1.9,4
				c0.7,8.2,4.7,14.8,10.5,17.4v4.1c-18.2,0.3-21.6,2.3-21.6,15.6v9.9h54.1v-9.9C391.6,228.3,388,226.2,369.8,226z"/>
		</g>
		<path fill="#78A4A4" d="M396.4,271.5c0,2.6-2.1,4.7-4.7,4.7H277c-2.6,0-4.7-2.1-4.7-4.7c0-2.6,2.1-4.7,4.7-4.7h114.7
			C394.3,266.9,396.4,268.9,396.4,271.5"/>
		<path fill="#78A4A4" d="M396.4,291.1c0,2.6-2.1,4.7-4.7,4.7H277c-2.6,0-4.7-2.1-4.7-4.7c0-2.6,2.1-4.7,4.7-4.7h114.7
			C394.3,286.4,396.4,288.5,396.4,291.1"/>
		<path fill="#78A4A4" d="M396.4,311.7c0,2.6-2.1,4.7-4.7,4.7H277c-2.6,0-4.7-2.1-4.7-4.7c0-2.6,2.1-4.7,4.7-4.7h114.7
			C394.3,307,396.4,309.1,396.4,311.7"/>
		<polygon fill="#1C5A64" points="258,136.5 260.1,136.5 260.1,370.2 258,370.2 		"/>
		<path opacity="0.15" fill="#FFFFFF" d="M177.2,136.5h80.6v233.7h-80.6C163.9,370.2,163.9,136.5,177.2,136.5z"/>
		<g>
			<path fill="#DAC425" d="M189.1,193.1c-2.3-6.6-5.7-12.7-9.9-18.1c-4.5,5.5-8.1,11.8-10.4,18.7c2.9,0.5,5.8,0.8,8.8,0.8
				C181.5,194.4,185.4,194,189.1,193.1z"/>
			<path fill="#DAC425" d="M184.5,170.4c-0.3,0-0.7-0.1-1-0.1c-0.8,0.8-1.5,1.6-2.3,2.4c4.7,5.8,8.4,12.5,10.9,19.7
				c2.2-0.6,4.3-1.4,6.4-2.3C195.2,182.5,190.4,175.9,184.5,170.4z"/>
			<path fill="#DAC425" d="M177.1,172.6c-0.8-0.8-1.5-1.7-2.3-2.5c-0.8,0.1-1.6,0.1-2.3,0.3c-6.1,5.6-11,12.6-14.2,20.3
				c2.4,1,4.9,1.7,7.4,2.3C168.2,185.5,172.1,178.6,177.1,172.6z"/>
			<path fill="#DAC425" d="M192.8,172.4c-1-0.3-2-0.6-3-0.9c4.7,5,8.5,10.9,11.3,17.2c1.4-0.7,2.7-1.5,4-2.3
				C201.9,181.1,197.7,176.3,192.8,172.4z"/>
			<path fill="#DAC425" d="M141.7,207.1c0.7-6.7,2.7-13,5.6-18.7c-1-0.6-1.9-1.3-2.8-2c-3.5,4.5-6.2,9.6-7.8,15.3
				C138.3,203.7,140,205.5,141.7,207.1z"/>
			<path fill="#DAC425" d="M167.2,171.5c-1,0.3-2,0.6-3,0.9c-5.2,4.1-9.6,9.2-12.9,14.9c1.4,0.8,2.7,1.5,4.2,2.2
				C158.3,182.8,162.3,176.7,167.2,171.5z"/>
			<path fill="#DAC425" d="M201.8,176.8c2.2,2.5,4.2,5.2,5.9,8c0.7-0.5,1.4-1,2-1.5C207.3,180.8,204.7,178.6,201.8,176.8z"/>
			<path fill="#DAC425" d="M190,196c-4,0.9-8.2,1.4-12.5,1.4c-3.3,0-6.5-0.3-9.7-0.9c-1.5,5.3-2.4,10.9-2.4,16.7
				c0,2.3,0.1,4.6,0.4,6.8c3.7,0.9,7.6,1.3,11.7,1.3c5,0,9.9-0.7,14.5-2.1c0.2-2.2,0.4-4.4,0.4-6.6C192.4,206.9,191.5,201.3,190,196
				z"/>
			<path fill="#DAC425" d="M206.7,189.1c-1.4,0.9-2.9,1.7-4.3,2.5c2.5,6.6,3.9,13.7,4,21.2c2.1-1.4,4.2-3,6.1-4.7
				C211.7,201.2,209.7,194.8,206.7,189.1z"/>
			<path fill="#DAC425" d="M171.1,245.3c-3.1-0.4-6-1-8.9-1.8c2.8,4.7,6.3,8.9,10.3,12.6c0.5,0.1,0.9,0.1,1.4,0.2
				c1-0.9,1.9-1.9,2.8-2.9C174.6,250.8,172.8,248.1,171.1,245.3z"/>
			<path fill="#DAC425" d="M186.7,244.9c-1.8,3-3.7,5.8-5.9,8.5c0.9,1,1.8,1.9,2.7,2.8c0.3,0,0.7-0.1,1-0.1
				c4.2-3.9,7.8-8.4,10.7-13.3C192.5,243.7,189.7,244.4,186.7,244.9z"/>
			<path fill="#DAC425" d="M166.3,223.3c1.2,6.9,3.5,13.4,6.8,19.3c1.5,0.1,3,0.2,4.5,0.2c2.4,0,4.8-0.2,7.2-0.5
				c3.3-6,5.7-12.6,6.8-19.6c-4.5,1.2-9.2,1.8-14,1.8C173.7,224.4,169.9,224,166.3,223.3z"/>
			<path fill="#DAC425" d="M155.3,176.8c-3.3,2.1-6.2,4.6-8.8,7.4c0.8,0.6,1.5,1.1,2.3,1.6C150.6,182.5,152.8,179.5,155.3,176.8z"/>
			<path fill="#DAC425" d="M150.7,213.2c0-7.3,1.3-14.4,3.7-20.9c-1.5-0.7-3-1.5-4.5-2.4c-3,6-4.9,12.6-5.4,19.6
				c2,1.6,4,3.1,6.2,4.4C150.7,213.7,150.7,213.5,150.7,213.2z"/>
			<path fill="#DAC425" d="M155.3,249.7c-3.6-4.1-6.6-8.7-8.9-13.7c-2.9-2-5.6-4.2-8-6.7C141.7,237.7,147.7,244.9,155.3,249.7z"/>
			<path fill="#DAC425" d="M157.9,242.1c-2.3-0.9-4.5-1.9-6.7-3.1c3.3,5.8,7.7,10.9,13,15.1c1,0.3,2,0.6,3,0.9
				C163.6,251.1,160.5,246.8,157.9,242.1z"/>
			<path fill="#DAC425" d="M221.5,218.6c0.2-1.7,0.3-3.5,0.3-5.3c0-3.4-0.4-6.6-1.1-9.8c-1.6,2-3.3,3.9-5.2,5.7
				c0.1,1.3,0.2,2.7,0.2,4.1c0,5.2-0.7,10.2-2.1,14.9C216.5,225.3,219.2,222.1,221.5,218.6z"/>
			<path fill="#DAC425" d="M206.7,237.3c-2.3,1.4-4.6,2.7-7.1,3.8c-2.6,5.1-5.9,9.8-9.8,13.9c1-0.3,2-0.6,3-0.9
				C198.6,249.5,203.3,243.8,206.7,237.3z"/>
			<path fill="#DAC425" d="M220,225.7c-2.5,3-5.3,5.7-8.3,8.1c-2.4,5.9-5.7,11.2-9.9,15.9C210.4,244.2,216.9,235.7,220,225.7z"/>
			<path fill="#DAC425" d="M212.6,213.2c0-0.5,0-1,0-1.5c-2,1.7-4.1,3.2-6.4,4.6c-0.4,7.2-2,14.1-4.6,20.5c2.7-1.4,5.2-3,7.5-4.8
				C211.4,226.2,212.6,219.8,212.6,213.2z"/>
			<path fill="#DAC425" d="M163,222.5c-3.1-0.9-6.2-2-9-3.3c0.7,7.3,2.8,14.3,6.1,20.6c3,1.1,6.1,1.9,9.2,2.4
				C166.2,236,164.1,229.4,163,222.5z"/>
			<path fill="#DAC425" d="M144.2,230.7c-1.8-5.5-2.8-11.3-2.8-17.4c0-0.8,0-1.6,0.1-2.3c-2-1.7-3.8-3.5-5.5-5.5
				c-0.5,2.5-0.7,5.2-0.7,7.8c0,3.1,0.3,6.1,0.9,9C138.6,225.4,141.2,228.2,144.2,230.7z"/>
			<path fill="#DAC425" d="M211.7,185.5c-0.8,0.7-1.7,1.3-2.5,1.9c2.9,5.5,5,11.6,5.9,18c1.7-1.7,3.2-3.6,4.6-5.5
				C217.9,194.5,215.2,189.7,211.7,185.5z"/>
			<path fill="#DAC425" d="M194.9,221.6c-1,7.1-3.1,13.8-6.3,19.9c3.1-0.7,6-1.6,8.8-2.8c3.1-6.3,5-13.3,5.7-20.7
				C200.5,219.5,197.7,220.6,194.9,221.6z"/>
			<path fill="#DAC425" d="M203.3,214.6c0-0.4,0-0.9,0-1.3c0-7.2-1.3-14.1-3.7-20.4c-2.1,0.9-4.3,1.7-6.6,2.4
				c1.6,5.6,2.5,11.5,2.5,17.5c0,1.9-0.1,3.7-0.3,5.6C198,217.3,200.7,216,203.3,214.6z"/>
			<path fill="#DAC425" d="M177.5,245.7c-0.9,0-1.7,0-2.6-0.1c1.2,1.8,2.5,3.6,3.8,5.3c1.4-1.8,2.8-3.6,4-5.5
				C181,245.6,179.3,245.7,177.5,245.7z"/>
			<path fill="#DAC425" d="M150.9,217.5c-2.3-1.3-4.4-2.7-6.5-4.2c0,7.4,1.5,14.4,4.3,20.7c2.3,1.5,4.7,2.9,7.2,4
				C153.2,231.7,151.4,224.8,150.9,217.5z"/>
			<path fill="#DAC425" d="M162.4,213.2c0-6,0.9-11.8,2.4-17.3c-2.6-0.6-5.2-1.4-7.6-2.4c-2.2,6.2-3.4,12.8-3.4,19.7
				c0,0.8,0,1.6,0.1,2.4c2.8,1.5,5.8,2.7,8.9,3.6C162.5,217.3,162.4,215.3,162.4,213.2z"/>
		</g>
		<path fill="#78A4A4" d="M325.8,178.3c0,2.6-2.1,4.7-4.7,4.7H277c-2.6,0-4.7-2.1-4.7-4.7c0-2.6,2.1-4.7,4.7-4.7h44.1
			C323.7,173.7,325.8,175.7,325.8,178.3"/>
		<path fill="#78A4A4" d="M325.8,197.9c0,2.6-2.1,4.7-4.7,4.7H277c-2.6,0-4.7-2.1-4.7-4.7c0-2.6,2.1-4.7,4.7-4.7h44.1
			C323.7,193.2,325.8,195.3,325.8,197.9"/>
		<path fill="#78A4A4" d="M325.8,218.5c0,2.6-2.1,4.7-4.7,4.7H277c-2.6,0-4.7-2.1-4.7-4.7c0-2.6,2.1-4.7,4.7-4.7h44.1
			C323.7,213.8,325.8,215.9,325.8,218.5"/>
	</g>
	<g>
		<g>
			<path fill="#786E57" d="M351.3,320.1c1.7,3.9-0.1,8.5-4,10.2l-219.2,95.7c-3.9,1.7-8.5-0.1-10.2-4l-43-98.5
				c-1.7-3.9,0.1-8.5,4-10.2l219.2-95.7c3.9-1.7,8.5,0.1,10.2,4L351.3,320.1z"/>
		</g>
		<g>
			<path fill="#EDDAAB" d="M349,318.9c1.7,3.9-0.1,8.5-4,10.2l-219.2,95.7c-3.9,1.7-8.5-0.1-10.2-4l-43-98.5
				c-1.7-3.9,0.1-8.5,4-10.2l219.2-95.7c3.9-1.7,8.5,0.1,10.2,4L349,318.9z"/>
		</g>
		<g>
			<path fill="#786E57" d="M181.9,311c-6.5-5.4-15.4,3.8-17.5,6.3c0,0-0.5,0.7-1.5,1.9c-12-2.1-37-6.1-43.4-2.7
				c-1.3,0.7-4.5,4.2-3.3,4.6c9.5,3.3,26.9,9,36.1,12c-9.3,12.2-21.3,28.4-25.9,36c-5.5-0.9-13.2-1.8-15.5-0.6
				c-0.5,0.3-1.9,1.8-1.4,2c3.8,1.3,10.6,3.5,14.7,4.9c-0.2,1.2-0.1,2.6,1,3.2c1,0.5,2.3,0.4,3.4,0.2c2,3.7,5.6,10.3,7.6,14
				c0.3,0.5,1.5-1.2,1.7-1.8c0.8-2.5-1.6-9.9-3.4-15.2c6.9-5.8,21-20.6,31.6-31.8c4.4,8.1,13.7,25.3,18.8,34.5
				c0.6,1.1,3.5-2.7,4-4.1c2.2-7.1-6.7-32.4-10.8-43.3c0.8-0.9,1.3-1.4,1.3-1.4C181.3,327.3,188.3,316.5,181.9,311z"/>
		</g>
		<g>
			<path fill="#D8BF8A" d="M247.3,267.2c1.2,2.8-0.1,6-2.8,7.2l-28.4,12.4c-2.8,1.2-6-0.1-7.2-2.8l0,0c-1.2-2.8,0.1-6,2.8-7.2
				l28.4-12.4C242.9,263.1,246.1,264.4,247.3,267.2L247.3,267.2z"/>
		</g>
		<g>
			<path fill="#D8BF8A" d="M294.9,246.4c1.2,2.8-0.1,6-2.8,7.2L263.7,266c-2.8,1.2-6-0.1-7.2-2.8l0,0c-1.2-2.8,0.1-6,2.8-7.2
				l28.4-12.4C290.5,242.3,293.7,243.6,294.9,246.4L294.9,246.4z"/>
		</g>
		<g>
			<path fill="#D8BF8A" d="M274.8,330.2c1.2,2.8-0.1,6-2.8,7.2l-28.4,12.4c-2.8,1.2-6-0.1-7.2-2.8l0,0c-1.2-2.8,0.1-6,2.8-7.2
				l28.4-12.4C270.4,326.1,273.6,327.4,274.8,330.2L274.8,330.2z"/>
		</g>
		<g>
			<path fill="#D8BF8A" d="M322.4,309.4c1.2,2.8-0.1,6-2.8,7.2L291.2,329c-2.8,1.2-6-0.1-7.2-2.8l0,0c-1.2-2.8,0.1-6,2.8-7.2
				l28.4-12.4C318,305.3,321.2,306.6,322.4,309.4L322.4,309.4z"/>
		</g>
		<g>
			<g>
				<path fill="#D8BF8A" d="M225.8,307.6l75.5-33c2.8-1.2,4-4.4,2.8-7.2c-1.2-2.8-4.5-4.1-7.2-2.8l-75.5,33c-2.8,1.2-4,4.5-2.8,7.2
					C219.8,307.6,223,308.8,225.8,307.6z"/>
			</g>
			<g>
				<path fill="#D8BF8A" d="M305.8,285l-75.5,33c-2.8,1.2-4.1,4.5-2.8,7.2c1.2,2.8,4.4,4,7.2,2.8l75.5-33c2.8-1.2,4-4.5,2.8-7.2
					C311.8,285.1,308.6,283.8,305.8,285z"/>
			</g>
		</g>
	</g>
	<g>
		<g>
			<path fill="#258B90" d="M407.1,218.3l-1-2.3c7.6-3.3,11.7-8.4,11.7-11.6c0-3.5-4.9-6.3-6.8-7.2l1-2.3c0.3,0.1,8.3,3.7,8.3,9.5
				C420.3,208.8,415.9,214.4,407.1,218.3z"/>
		</g>
		<g>
			<path fill="#31A3A8" d="M399,193.3c0,0-20.2,32.5-17.3,40.5l21.3,59.5c2.9,8,8.9,10.5,17,7.6l31.6-11.3
				c8.1-2.9,10.7-8.4,7.8-16.5l-21.2-59.5C435.2,205.7,399,193.3,399,193.3z M410.1,221c-3.1,1.1-6.6-0.5-7.7-3.6
				c-1.1-3.1,0.5-6.6,3.6-7.7c3.1-1.1,6.6,0.5,7.7,3.6C414.8,216.4,413.2,219.8,410.1,221z"/>
		</g>
		<g>
			<path fill="#4EA5AE" d="M398.3,194.6c0,0-19.5,31.5-16.7,39.4l20.7,58.1c2.8,7.9,8.2,10.4,16.1,7.6l30.8-11
				c7.8-2.8,10.4-8.2,7.6-16.1l-20.7-58.1C433.3,206.6,398.3,194.6,398.3,194.6z M408.8,221.6c-3.1,1.1-6.4-0.5-7.5-3.6
				c-1.1-3.1,0.5-6.4,3.6-7.5c3.1-1.1,6.4,0.5,7.5,3.6C413.4,217.1,411.8,220.5,408.8,221.6z"/>
		</g>
		<g>
			<path fill="#258B90" d="M407.1,218.3c-0.1,0-0.3,0.1-0.4,0.1c-0.7,0-1.3-0.6-1.3-1.3c0-0.9,0.2-23.3,16.6-36.2
				c11.4-9,27.7-11,48.4-6c0.7,0.2,1.1,0.8,0.9,1.5c-0.2,0.7-0.8,1.1-1.5,0.9c-19.9-4.8-35.5-2.9-46.2,5.5
				c-15.5,12.2-15.7,34-15.7,34.3C407.9,217.6,407.6,218.1,407.1,218.3z"/>
		</g>
		<path fill="#FFFFFF" d="M395.3,242.5c-1.5-4.1,0.4-8.6,4.3-10l22.9-8.2c3.8-1.4,8.1,0.9,9.6,5l14.9,41.8c1.5,4.1-0.4,8.6-4.3,10
			l-22.9,8.2c-3.8,1.4-8.1-0.9-9.6-5L395.3,242.5z"/>
		<path fill="#94D6E2" d="M400.8,237.1c-1.2,0.4-1.8,1.8-1.4,3l15.4,43c0.4,1.2,1.8,1.8,3,1.4c1.2-0.4,1.9-1.8,1.4-3l-15.4-43
			C403.4,237.3,402,236.7,400.8,237.1z"/>
		<path fill="#94D6E2" d="M410.3,233.7c-1.2,0.4-1.8,1.8-1.4,3l15.4,43c0.4,1.2,1.8,1.8,3,1.4c1.2-0.4,1.9-1.8,1.4-3l-15.4-43
			C412.8,233.9,411.5,233.3,410.3,233.7z"/>
		<path fill="#94D6E2" d="M419.8,230.3c-1.2,0.4-1.8,1.8-1.4,3l15.4,43c0.4,1.2,1.8,1.8,3,1.4c1.2-0.4,1.8-1.8,1.4-3l-15.4-43
			C422.3,230.5,421,229.9,419.8,230.3z"/>
	</g>
</g>
</svg>
